<?xml version="1.0" encoding="UTF-8" standalone="no"?>
<!DOCTYPE svg PUBLIC "-//W3C//DTD SVG 1.1//EN"
 "http://www.w3.org/Graphics/SVG/1.1/DTD/svg11.dtd">
<!-- Generated by graphviz version 2.40.1 (20161225.0304)
 -->
<!-- Title: compactRelationshipsDiagram Pages: 1 -->
<svg width="703pt" height="388pt"
 viewBox="0.00 0.00 703.00 388.20" xmlns="http://www.w3.org/2000/svg" xmlns:xlink="http://www.w3.org/1999/xlink">
<g id="graph0" class="graph" transform="scale(1 1) rotate(0) translate(4 384.2)">
<title>compactRelationshipsDiagram</title>
<polygon fill="#ffffff" stroke="transparent" points="-4,4 -4,-384.2 699,-384.2 699,4 -4,4"/>
<text text-anchor="middle" x="72.4936" y="-7.3" font-family="Helvetica,sans-Serif" font-size="11.00" fill="#000000">Generated by SchemaSpy</text>
<!-- FormTable -->
<g id="node1" class="node">
<title>FormTable</title>
<g id="a_node1"><a xlink:href="../../tables/FormTable.html" xlink:title="FormTable" target="_top">
<polygon fill="#ffffff" stroke="transparent" points="259,-208.2 259,-357.2 450,-357.2 450,-208.2 259,-208.2"/>
<polygon fill="#f5f5f5" stroke="transparent" points="259.5,-333.7 259.5,-356.7 450.5,-356.7 450.5,-333.7 259.5,-333.7"/>
<polygon fill="none" stroke="#000000" points="259.5,-333.7 259.5,-356.7 450.5,-356.7 450.5,-333.7 259.5,-333.7"/>
<text text-anchor="start" x="264.5" y="-342.8" font-family="Helvetica,sans-Serif" font-weight="bold" font-size="11.00" fill="#000000">FormTable</text>
<text text-anchor="start" x="415.5437" y="-341.8" font-family="Helvetica,sans-Serif" font-size="11.00" fill="#000000">[table]</text>
<polygon fill="none" stroke="#000000" points="259.5,-311.7 259.5,-333.7 450.5,-333.7 450.5,-311.7 259.5,-311.7"/>
<image xlink:href="../../images/primaryKeys.png" width="11px" height="12px" preserveAspectRatio="xMinYMin meet" x="264.5" y="-328.7"/>
<text text-anchor="start" x="279.5" y="-318.8" font-family="Helvetica,sans-Serif" font-size="11.00" fill="#000000">cldf_id</text>
<polygon fill="none" stroke="#000000" points="259.5,-289.7 259.5,-311.7 450.5,-311.7 450.5,-289.7 259.5,-289.7"/>
<image xlink:href="../../images/foreignKeys.png" width="11px" height="12px" preserveAspectRatio="xMinYMin meet" x="264.5" y="-306.7"/>
<text text-anchor="start" x="279.5" y="-296.8" font-family="Helvetica,sans-Serif" font-size="11.00" fill="#000000">cldf_languageReference</text>
<polygon fill="none" stroke="#000000" points="259.5,-267.7 259.5,-289.7 450.5,-289.7 450.5,-267.7 259.5,-267.7"/>
<image xlink:href="../../images/foreignKeys.png" width="11px" height="12px" preserveAspectRatio="xMinYMin meet" x="264.5" y="-284.7"/>
<text text-anchor="start" x="279.5" y="-274.8" font-family="Helvetica,sans-Serif" font-size="11.00" fill="#000000">cldf_parameterReference</text>
<polygon fill="none" stroke="#000000" points="259.5,-245.7 259.5,-267.7 450.5,-267.7 450.5,-245.7 259.5,-245.7"/>
<image xlink:href="../../images/foreignKeys.png" width="11px" height="12px" preserveAspectRatio="xMinYMin meet" x="264.5" y="-262.7"/>
<text text-anchor="start" x="279.5" y="-252.8" font-family="Helvetica,sans-Serif" font-size="11.00" fill="#000000">cldf_mediaReference</text>
<polygon fill="none" stroke="#000000" points="259.5,-226.7 259.5,-245.7 450.5,-245.7 450.5,-226.7 259.5,-226.7"/>
<text text-anchor="start" x="262.5" y="-232.8" font-family="Helvetica,sans-Serif" font-size="11.00" fill="#000000">...</text>
<polygon fill="#ffffff" stroke="transparent" points="259.5,-207.7 259.5,-226.7 322.5,-226.7 322.5,-207.7 259.5,-207.7"/>
<polygon fill="none" stroke="#000000" points="259.5,-207.7 259.5,-226.7 322.5,-226.7 322.5,-207.7 259.5,-207.7"/>
<text text-anchor="start" x="262.5" y="-213.8" font-family="Helvetica,sans-Serif" font-size="11.00" fill="#000000">&lt; 3</text>
<polygon fill="#ffffff" stroke="transparent" points="322.5,-207.7 322.5,-226.7 408.5,-226.7 408.5,-207.7 322.5,-207.7"/>
<polygon fill="none" stroke="#000000" points="322.5,-207.7 322.5,-226.7 408.5,-226.7 408.5,-207.7 322.5,-207.7"/>
<text text-anchor="start" x="345.594" y="-213.8" font-family="Helvetica,sans-Serif" font-size="11.00" fill="#000000">54,073 rows</text>
<polygon fill="#ffffff" stroke="transparent" points="408.5,-207.7 408.5,-226.7 450.5,-226.7 450.5,-207.7 408.5,-207.7"/>
<polygon fill="none" stroke="#000000" points="408.5,-207.7 408.5,-226.7 450.5,-226.7 450.5,-207.7 408.5,-207.7"/>
<text text-anchor="start" x="431.9053" y="-213.8" font-family="Helvetica,sans-Serif" font-size="11.00" fill="#000000">1 &gt;</text>
</a>
</g>
</g>
<!-- LanguageTable -->
<g id="node3" class="node">
<title>LanguageTable</title>
<g id="a_node3"><a xlink:href="../../tables/LanguageTable.html" xlink:title="LanguageTable" target="_top">
<polygon fill="#ffffff" stroke="transparent" points="36.5,-293.2 36.5,-376.2 181.5,-376.2 181.5,-293.2 36.5,-293.2"/>
<polygon fill="#f5f5f5" stroke="transparent" points="37,-352.7 37,-375.7 182,-375.7 182,-352.7 37,-352.7"/>
<polygon fill="none" stroke="#000000" points="37,-352.7 37,-375.7 182,-375.7 182,-352.7 37,-352.7"/>
<text text-anchor="start" x="42" y="-361.8" font-family="Helvetica,sans-Serif" font-weight="bold" font-size="11.00" fill="#000000">LanguageTable</text>
<text text-anchor="start" x="147.0437" y="-360.8" font-family="Helvetica,sans-Serif" font-size="11.00" fill="#000000">[table]</text>
<polygon fill="none" stroke="#000000" points="37,-330.7 37,-352.7 182,-352.7 182,-330.7 37,-330.7"/>
<image xlink:href="../../images/primaryKeys.png" width="11px" height="12px" preserveAspectRatio="xMinYMin meet" x="42" y="-347.7"/>
<text text-anchor="start" x="57" y="-337.8" font-family="Helvetica,sans-Serif" font-size="11.00" fill="#000000">cldf_id</text>
<polygon fill="none" stroke="#000000" points="37,-311.7 37,-330.7 182,-330.7 182,-311.7 37,-311.7"/>
<text text-anchor="start" x="40" y="-317.8" font-family="Helvetica,sans-Serif" font-size="11.00" fill="#000000">...</text>
<polygon fill="#ffffff" stroke="transparent" points="37,-292.7 37,-311.7 80,-311.7 80,-292.7 37,-292.7"/>
<polygon fill="none" stroke="#000000" points="37,-292.7 37,-311.7 80,-311.7 80,-292.7 37,-292.7"/>
<text text-anchor="start" x="40" y="-298.8" font-family="Helvetica,sans-Serif" font-size="11.00" fill="#000000"> &#160;</text>
<polygon fill="#ffffff" stroke="transparent" points="80,-292.7 80,-311.7 145,-311.7 145,-292.7 80,-292.7"/>
<polygon fill="none" stroke="#000000" points="80,-292.7 80,-311.7 145,-311.7 145,-292.7 80,-292.7"/>
<text text-anchor="start" x="97.3807" y="-298.8" font-family="Helvetica,sans-Serif" font-size="11.00" fill="#000000">159 rows</text>
<polygon fill="#ffffff" stroke="transparent" points="145,-292.7 145,-311.7 182,-311.7 182,-292.7 145,-292.7"/>
<polygon fill="none" stroke="#000000" points="145,-292.7 145,-311.7 182,-311.7 182,-292.7 145,-292.7"/>
<text text-anchor="start" x="163.4053" y="-298.8" font-family="Helvetica,sans-Serif" font-size="11.00" fill="#000000">1 &gt;</text>
</a>
</g>
</g>
<!-- FormTable&#45;&gt;LanguageTable -->
<g id="edge1" class="edge">
<title>FormTable:w&#45;&gt;LanguageTable:e</title>
<path fill="none" stroke="#000000" d="M245.179,-302.9043C219.8756,-311.4205 215.4877,-341.7 182,-341.7"/>
<polygon fill="#000000" stroke="#000000" points="251.5931,-301.9171 260.0477,-304.2581 255.5466,-301.3086 259.5,-300.7 259.5,-300.7 259.5,-300.7 255.5466,-301.3086 258.9523,-297.1419 251.5931,-301.9171 251.5931,-301.9171"/>
<ellipse fill="none" stroke="#000000" cx="248.4304" cy="-302.4039" rx="3.2" ry="3.2"/>
</g>
<!-- MediaTable -->
<g id="node4" class="node">
<title>MediaTable</title>
<g id="a_node4"><a xlink:href="../../tables/MediaTable.html" xlink:title="MediaTable" target="_top">
<polygon fill="#ffffff" stroke="transparent" points="40.5,-79.2 40.5,-162.2 177.5,-162.2 177.5,-79.2 40.5,-79.2"/>
<polygon fill="#f5f5f5" stroke="transparent" points="41,-138.7 41,-161.7 178,-161.7 178,-138.7 41,-138.7"/>
<polygon fill="none" stroke="#000000" points="41,-138.7 41,-161.7 178,-161.7 178,-138.7 41,-138.7"/>
<text text-anchor="start" x="46" y="-147.8" font-family="Helvetica,sans-Serif" font-weight="bold" font-size="11.00" fill="#000000">MediaTable</text>
<text text-anchor="start" x="143.0437" y="-146.8" font-family="Helvetica,sans-Serif" font-size="11.00" fill="#000000">[table]</text>
<polygon fill="none" stroke="#000000" points="41,-116.7 41,-138.7 178,-138.7 178,-116.7 41,-116.7"/>
<image xlink:href="../../images/primaryKeys.png" width="11px" height="12px" preserveAspectRatio="xMinYMin meet" x="46" y="-133.7"/>
<text text-anchor="start" x="61" y="-123.8" font-family="Helvetica,sans-Serif" font-size="11.00" fill="#000000">cldf_id</text>
<polygon fill="none" stroke="#000000" points="41,-97.7 41,-116.7 178,-116.7 178,-97.7 41,-97.7"/>
<text text-anchor="start" x="44" y="-103.8" font-family="Helvetica,sans-Serif" font-size="11.00" fill="#000000">...</text>
<polygon fill="#ffffff" stroke="transparent" points="41,-78.7 41,-97.7 80,-97.7 80,-78.7 41,-78.7"/>
<polygon fill="none" stroke="#000000" points="41,-78.7 41,-97.7 80,-97.7 80,-78.7 41,-78.7"/>
<text text-anchor="start" x="44" y="-84.8" font-family="Helvetica,sans-Serif" font-size="11.00" fill="#000000"> &#160;</text>
<polygon fill="#ffffff" stroke="transparent" points="80,-78.7 80,-97.7 143,-97.7 143,-78.7 80,-78.7"/>
<polygon fill="none" stroke="#000000" points="80,-78.7 80,-97.7 143,-97.7 143,-78.7 80,-78.7"/>
<text text-anchor="start" x="95.3807" y="-84.8" font-family="Helvetica,sans-Serif" font-size="11.00" fill="#000000">187 rows</text>
<polygon fill="#ffffff" stroke="transparent" points="143,-78.7 143,-97.7 178,-97.7 178,-78.7 143,-78.7"/>
<polygon fill="none" stroke="#000000" points="143,-78.7 143,-97.7 178,-97.7 178,-78.7 143,-78.7"/>
<text text-anchor="start" x="159.4053" y="-84.8" font-family="Helvetica,sans-Serif" font-size="11.00" fill="#000000">2 &gt;</text>
</a>
</g>
</g>
<!-- FormTable&#45;&gt;MediaTable -->
<g id="edge2" class="edge">
<title>FormTable:w&#45;&gt;MediaTable:e</title>
<path fill="none" stroke="#000000" d="M245.2732,-253.7631C225.1365,-243.2443 236.1586,-206.5963 218,-178.7 202.2848,-154.5575 206.8067,-127.7 178,-127.7"/>
<polygon fill="#000000" stroke="#000000" points="251.6652,-255.0826 258.7722,-260.2257 255.5826,-255.8913 259.5,-256.7 259.5,-256.7 259.5,-256.7 255.5826,-255.8913 260.2278,-253.1743 251.6652,-255.0826 251.6652,-255.0826"/>
<ellipse fill="none" stroke="#000000" cx="248.5313" cy="-254.4356" rx="3.2" ry="3.2"/>
</g>
<!-- ParameterTable -->
<g id="node6" class="node">
<title>ParameterTable</title>
<g id="a_node6"><a xlink:href="../../tables/ParameterTable.html" xlink:title="ParameterTable" target="_top">
<polygon fill="#ffffff" stroke="transparent" points="8,-189.2 8,-272.2 210,-272.2 210,-189.2 8,-189.2"/>
<polygon fill="#f5f5f5" stroke="transparent" points="8,-248.7 8,-271.7 210,-271.7 210,-248.7 8,-248.7"/>
<polygon fill="none" stroke="#000000" points="8,-248.7 8,-271.7 210,-271.7 210,-248.7 8,-248.7"/>
<text text-anchor="start" x="13" y="-257.8" font-family="Helvetica,sans-Serif" font-weight="bold" font-size="11.00" fill="#000000">ParameterTable</text>
<text text-anchor="start" x="175.0437" y="-256.8" font-family="Helvetica,sans-Serif" font-size="11.00" fill="#000000">[table]</text>
<polygon fill="none" stroke="#000000" points="8,-226.7 8,-248.7 210,-248.7 210,-226.7 8,-226.7"/>
<image xlink:href="../../images/primaryKeys.png" width="11px" height="12px" preserveAspectRatio="xMinYMin meet" x="13" y="-243.7"/>
<text text-anchor="start" x="28" y="-233.8" font-family="Helvetica,sans-Serif" font-size="11.00" fill="#000000">cldf_id</text>
<polygon fill="none" stroke="#000000" points="8,-207.7 8,-226.7 210,-226.7 210,-207.7 8,-207.7"/>
<text text-anchor="start" x="11" y="-213.8" font-family="Helvetica,sans-Serif" font-size="11.00" fill="#000000">...</text>
<polygon fill="#ffffff" stroke="transparent" points="8,-188.7 8,-207.7 79,-207.7 79,-188.7 8,-188.7"/>
<polygon fill="none" stroke="#000000" points="8,-188.7 8,-207.7 79,-207.7 79,-188.7 8,-188.7"/>
<text text-anchor="start" x="11" y="-194.8" font-family="Helvetica,sans-Serif" font-size="11.00" fill="#000000"> &#160;</text>
<polygon fill="#ffffff" stroke="transparent" points="79,-188.7 79,-207.7 159,-207.7 159,-188.7 79,-188.7"/>
<polygon fill="none" stroke="#000000" points="79,-188.7 79,-207.7 159,-207.7 159,-188.7 79,-188.7"/>
<text text-anchor="start" x="111.3807" y="-194.8" font-family="Helvetica,sans-Serif" font-size="11.00" fill="#000000">319 rows</text>
<polygon fill="#ffffff" stroke="transparent" points="159,-188.7 159,-207.7 210,-207.7 210,-188.7 159,-188.7"/>
<polygon fill="none" stroke="#000000" points="159,-188.7 159,-207.7 210,-207.7 210,-188.7 159,-188.7"/>
<text text-anchor="start" x="191.4053" y="-194.8" font-family="Helvetica,sans-Serif" font-size="11.00" fill="#000000">1 &gt;</text>
</a>
</g>
</g>
<!-- FormTable&#45;&gt;ParameterTable -->
<g id="edge3" class="edge">
<title>FormTable:w&#45;&gt;ParameterTable:e</title>
<path fill="none" stroke="#000000" d="M245.5753,-273.9968C232.543,-263.2274 232.5408,-237.7 210,-237.7"/>
<polygon fill="#000000" stroke="#000000" points="251.9207,-276.14 258.348,-282.1107 255.7103,-277.42 259.5,-278.7 259.5,-278.7 259.5,-278.7 255.7103,-277.42 260.652,-275.2893 251.9207,-276.14 251.9207,-276.14"/>
<ellipse fill="none" stroke="#000000" cx="248.8889" cy="-275.1159" rx="3.2" ry="3.2"/>
</g>
<!-- FormTable_SourceTable -->
<g id="node2" class="node">
<title>FormTable_SourceTable</title>
<g id="a_node2"><a xlink:href="../../tables/FormTable_SourceTable.html" xlink:title="FormTable_SourceTable" target="_top">
<polygon fill="#ffffff" stroke="transparent" points="502,-222.2 502,-327.2 684,-327.2 684,-222.2 502,-222.2"/>
<polygon fill="#f5f5f5" stroke="transparent" points="502,-303.7 502,-326.7 684,-326.7 684,-303.7 502,-303.7"/>
<polygon fill="none" stroke="#000000" points="502,-303.7 502,-326.7 684,-326.7 684,-303.7 502,-303.7"/>
<text text-anchor="start" x="507" y="-312.8" font-family="Helvetica,sans-Serif" font-weight="bold" font-size="11.00" fill="#000000">FormTable_SourceTable</text>
<text text-anchor="start" x="649.0437" y="-311.8" font-family="Helvetica,sans-Serif" font-size="11.00" fill="#000000">[table]</text>
<polygon fill="none" stroke="#000000" points="502,-281.7 502,-303.7 684,-303.7 684,-281.7 502,-281.7"/>
<image xlink:href="../../images/foreignKeys.png" width="11px" height="12px" preserveAspectRatio="xMinYMin meet" x="507" y="-298.7"/>
<text text-anchor="start" x="522" y="-288.8" font-family="Helvetica,sans-Serif" font-size="11.00" fill="#000000">FormTable_cldf_id</text>
<polygon fill="none" stroke="#000000" points="502,-259.7 502,-281.7 684,-281.7 684,-259.7 502,-259.7"/>
<image xlink:href="../../images/foreignKeys.png" width="11px" height="12px" preserveAspectRatio="xMinYMin meet" x="507" y="-276.7"/>
<text text-anchor="start" x="522" y="-266.8" font-family="Helvetica,sans-Serif" font-size="11.00" fill="#000000">SourceTable_id</text>
<polygon fill="none" stroke="#000000" points="502,-240.7 502,-259.7 684,-259.7 684,-240.7 502,-240.7"/>
<text text-anchor="start" x="505" y="-246.8" font-family="Helvetica,sans-Serif" font-size="11.00" fill="#000000">...</text>
<polygon fill="#ffffff" stroke="transparent" points="502,-221.7 502,-240.7 565,-240.7 565,-221.7 502,-221.7"/>
<polygon fill="none" stroke="#000000" points="502,-221.7 502,-240.7 565,-240.7 565,-221.7 502,-221.7"/>
<text text-anchor="start" x="505" y="-227.8" font-family="Helvetica,sans-Serif" font-size="11.00" fill="#000000">&lt; 2</text>
<polygon fill="#ffffff" stroke="transparent" points="565,-221.7 565,-240.7 651,-240.7 651,-221.7 565,-221.7"/>
<polygon fill="none" stroke="#000000" points="565,-221.7 565,-240.7 651,-240.7 651,-221.7 565,-221.7"/>
<text text-anchor="start" x="588.094" y="-227.8" font-family="Helvetica,sans-Serif" font-size="11.00" fill="#000000">54,073 rows</text>
<polygon fill="#ffffff" stroke="transparent" points="651,-221.7 651,-240.7 684,-240.7 684,-221.7 651,-221.7"/>
<polygon fill="none" stroke="#000000" points="651,-221.7 651,-240.7 684,-240.7 684,-221.7 651,-221.7"/>
<text text-anchor="start" x="674.8862" y="-227.8" font-family="Helvetica,sans-Serif" font-size="11.00" fill="#000000"> &#160;</text>
</a>
</g>
</g>
<!-- FormTable_SourceTable&#45;&gt;FormTable -->
<g id="edge4" class="edge">
<title>FormTable_SourceTable:w&#45;&gt;FormTable:e</title>
<path fill="none" stroke="#000000" d="M488.0458,-296.3786C474.8193,-304.3895 471.1947,-322.7 450.5,-322.7"/>
<polygon fill="#000000" stroke="#000000" points="494.2643,-294.7393 502.9177,-296.1811 498.1321,-293.7197 502,-292.7 502,-292.7 502,-292.7 498.1321,-293.7197 501.0823,-289.2189 494.2643,-294.7393 494.2643,-294.7393"/>
<ellipse fill="none" stroke="#000000" cx="491.17" cy="-295.5551" rx="3.2" ry="3.2"/>
</g>
<!-- SourceTable -->
<g id="node7" class="node">
<title>SourceTable</title>
<g id="a_node7"><a xlink:href="../../tables/SourceTable.html" xlink:title="SourceTable" target="_top">
<polygon fill="#ffffff" stroke="transparent" points="297,-104.2 297,-187.2 412,-187.2 412,-104.2 297,-104.2"/>
<polygon fill="#f5f5f5" stroke="transparent" points="297.5,-163.7 297.5,-186.7 412.5,-186.7 412.5,-163.7 297.5,-163.7"/>
<polygon fill="none" stroke="#000000" points="297.5,-163.7 297.5,-186.7 412.5,-186.7 412.5,-163.7 297.5,-163.7"/>
<text text-anchor="start" x="302.5" y="-172.8" font-family="Helvetica,sans-Serif" font-weight="bold" font-size="11.00" fill="#000000">SourceTable</text>
<text text-anchor="start" x="377.5437" y="-171.8" font-family="Helvetica,sans-Serif" font-size="11.00" fill="#000000">[table]</text>
<polygon fill="none" stroke="#000000" points="297.5,-141.7 297.5,-163.7 412.5,-163.7 412.5,-141.7 297.5,-141.7"/>
<image xlink:href="../../images/primaryKeys.png" width="11px" height="12px" preserveAspectRatio="xMinYMin meet" x="302.5" y="-158.7"/>
<text text-anchor="start" x="317.5" y="-148.8" font-family="Helvetica,sans-Serif" font-size="11.00" fill="#000000">id</text>
<polygon fill="none" stroke="#000000" points="297.5,-122.7 297.5,-141.7 412.5,-141.7 412.5,-122.7 297.5,-122.7"/>
<text text-anchor="start" x="300.5" y="-128.8" font-family="Helvetica,sans-Serif" font-size="11.00" fill="#000000">...</text>
<polygon fill="#ffffff" stroke="transparent" points="297.5,-103.7 297.5,-122.7 331.5,-122.7 331.5,-103.7 297.5,-103.7"/>
<polygon fill="none" stroke="#000000" points="297.5,-103.7 297.5,-122.7 331.5,-122.7 331.5,-103.7 297.5,-103.7"/>
<text text-anchor="start" x="300.5" y="-109.8" font-family="Helvetica,sans-Serif" font-size="11.00" fill="#000000"> &#160;</text>
<polygon fill="#ffffff" stroke="transparent" points="331.5,-103.7 331.5,-122.7 380.5,-122.7 380.5,-103.7 331.5,-103.7"/>
<polygon fill="none" stroke="#000000" points="331.5,-103.7 331.5,-122.7 380.5,-122.7 380.5,-103.7 331.5,-103.7"/>
<text text-anchor="start" x="345.1105" y="-109.8" font-family="Helvetica,sans-Serif" font-size="11.00" fill="#000000">2 rows</text>
<polygon fill="#ffffff" stroke="transparent" points="380.5,-103.7 380.5,-122.7 412.5,-122.7 412.5,-103.7 380.5,-103.7"/>
<polygon fill="none" stroke="#000000" points="380.5,-103.7 380.5,-122.7 412.5,-122.7 412.5,-103.7 380.5,-103.7"/>
<text text-anchor="start" x="393.9053" y="-109.8" font-family="Helvetica,sans-Serif" font-size="11.00" fill="#000000">2 &gt;</text>
</a>
</g>
</g>
<!-- FormTable_SourceTable&#45;&gt;SourceTable -->
<g id="edge5" class="edge">
<title>FormTable_SourceTable:w&#45;&gt;SourceTable:e</title>
<path fill="none" stroke="#000000" d="M487.6516,-267.6064C468.6169,-257.1984 477.6738,-222.7029 458,-197.7 440.4122,-175.3481 440.9418,-152.7 412.5,-152.7"/>
<polygon fill="#000000" stroke="#000000" points="494.1797,-269.0138 501.2412,-274.2191 498.0899,-269.8569 502,-270.7 502,-270.7 502,-270.7 498.0899,-269.8569 502.7588,-267.1809 494.1797,-269.0138 494.1797,-269.0138"/>
<ellipse fill="none" stroke="#000000" cx="491.0516" cy="-268.3394" rx="3.2" ry="3.2"/>
</g>
<!-- MediaTable_SourceTable -->
<g id="node5" class="node">
<title>MediaTable_SourceTable</title>
<g id="a_node5"><a xlink:href="../../tables/MediaTable_SourceTable.html" xlink:title="MediaTable_SourceTable" target="_top">
<polygon fill="#ffffff" stroke="transparent" points="499,-38.2 499,-143.2 687,-143.2 687,-38.2 499,-38.2"/>
<polygon fill="#f5f5f5" stroke="transparent" points="499,-119.7 499,-142.7 687,-142.7 687,-119.7 499,-119.7"/>
<polygon fill="none" stroke="#000000" points="499,-119.7 499,-142.7 687,-142.7 687,-119.7 499,-119.7"/>
<text text-anchor="start" x="504" y="-128.8" font-family="Helvetica,sans-Serif" font-weight="bold" font-size="11.00" fill="#000000">MediaTable_SourceTable</text>
<text text-anchor="start" x="652.0437" y="-127.8" font-family="Helvetica,sans-Serif" font-size="11.00" fill="#000000">[table]</text>
<polygon fill="none" stroke="#000000" points="499,-97.7 499,-119.7 687,-119.7 687,-97.7 499,-97.7"/>
<image xlink:href="../../images/foreignKeys.png" width="11px" height="12px" preserveAspectRatio="xMinYMin meet" x="504" y="-114.7"/>
<text text-anchor="start" x="519" y="-104.8" font-family="Helvetica,sans-Serif" font-size="11.00" fill="#000000">MediaTable_cldf_id</text>
<polygon fill="none" stroke="#000000" points="499,-75.7 499,-97.7 687,-97.7 687,-75.7 499,-75.7"/>
<image xlink:href="../../images/foreignKeys.png" width="11px" height="12px" preserveAspectRatio="xMinYMin meet" x="504" y="-92.7"/>
<text text-anchor="start" x="519" y="-82.8" font-family="Helvetica,sans-Serif" font-size="11.00" fill="#000000">SourceTable_id</text>
<polygon fill="none" stroke="#000000" points="499,-56.7 499,-75.7 687,-75.7 687,-56.7 499,-56.7"/>
<text text-anchor="start" x="502" y="-62.8" font-family="Helvetica,sans-Serif" font-size="11.00" fill="#000000">...</text>
<polygon fill="#ffffff" stroke="transparent" points="499,-37.7 499,-56.7 572,-56.7 572,-37.7 499,-37.7"/>
<polygon fill="none" stroke="#000000" points="499,-37.7 499,-56.7 572,-56.7 572,-37.7 499,-37.7"/>
<text text-anchor="start" x="502" y="-43.8" font-family="Helvetica,sans-Serif" font-size="11.00" fill="#000000">&lt; 2</text>
<polygon fill="#ffffff" stroke="transparent" points="572,-37.7 572,-56.7 648,-56.7 648,-37.7 572,-37.7"/>
<polygon fill="none" stroke="#000000" points="572,-37.7 572,-56.7 648,-56.7 648,-37.7 572,-37.7"/>
<text text-anchor="start" x="600.3807" y="-43.8" font-family="Helvetica,sans-Serif" font-size="11.00" fill="#000000">187 rows</text>
<polygon fill="#ffffff" stroke="transparent" points="648,-37.7 648,-56.7 687,-56.7 687,-37.7 648,-37.7"/>
<polygon fill="none" stroke="#000000" points="648,-37.7 648,-56.7 687,-56.7 687,-37.7 648,-37.7"/>
<text text-anchor="start" x="677.8862" y="-43.8" font-family="Helvetica,sans-Serif" font-size="11.00" fill="#000000"> &#160;</text>
</a>
</g>
</g>
<!-- MediaTable_SourceTable&#45;&gt;MediaTable -->
<g id="edge6" class="edge">
<title>MediaTable_SourceTable:w&#45;&gt;MediaTable:e</title>
<path fill="none" stroke="#000000" d="M484.741,-105.9028C476.4173,-102.2444 471.1353,-96.0274 458,-93.7 367.411,-77.6491 340.8238,-73.808 251,-93.7 216.0557,-101.4386 213.7909,-127.7 178,-127.7"/>
<polygon fill="#000000" stroke="#000000" points="491.1496,-107.16 498.307,-112.2327 495.0748,-107.93 499,-108.7 499,-108.7 499,-108.7 495.0748,-107.93 499.693,-105.1673 491.1496,-107.16 491.1496,-107.16"/>
<ellipse fill="none" stroke="#000000" cx="488.0095" cy="-106.5439" rx="3.2" ry="3.2"/>
</g>
<!-- MediaTable_SourceTable&#45;&gt;SourceTable -->
<g id="edge7" class="edge">
<title>MediaTable_SourceTable:w&#45;&gt;SourceTable:e</title>
<path fill="none" stroke="#000000" d="M484.6507,-89.049C452.2054,-100.8062 455.3792,-152.7 412.5,-152.7"/>
<polygon fill="#000000" stroke="#000000" points="491.1051,-87.9924 499.5816,-90.2527 495.0525,-87.3462 499,-86.7 499,-86.7 499,-86.7 495.0525,-87.3462 498.4184,-83.1473 491.1051,-87.9924 491.1051,-87.9924"/>
<ellipse fill="none" stroke="#000000" cx="487.9471" cy="-88.5094" rx="3.2" ry="3.2"/>
</g>
</g>
</svg>

